<svg width="187" height="45" viewBox="0 0 187 45" fill="none" xmlns="http://www.w3.org/2000/svg">
<path d="M15.9132 9.50807C15.7793 9.02869 15.7041 8.52346 15.7041 8.00177C15.7041 7.95243 15.7064 7.90308 15.7088 7.85608C10.7035 9.63967 6.74149 13.792 5.34094 19.1474L6.91069 19.5587C8.14204 14.8541 11.5659 11.1789 15.9132 9.50807Z" fill="url(#paint0_linear_29_1405)"/>
<path d="M31.2229 29.762L35.7089 25.4828C36.0402 25.652 36.4138 25.746 36.811 25.746C38.1528 25.746 39.2455 24.6533 39.2455 23.3115C39.2455 22.1906 38.4841 21.2436 37.4502 20.9616C37.0272 18.043 35.8217 15.2677 33.9511 12.9695C32.0688 10.6525 29.5779 8.89007 26.7956 7.88196C26.7956 7.92191 26.798 7.9642 26.798 8.00415C26.798 8.53523 26.7228 9.04752 26.5818 9.53395C28.9505 10.4598 31.0701 11.9967 32.6916 13.9917C34.353 16.0338 35.4316 18.4942 35.8264 21.0838C34.971 21.4621 34.3718 22.3175 34.3718 23.3115C34.3718 23.6664 34.4493 24.0047 34.5856 24.3079L32.8161 25.9975C33.0159 25.1351 33.1216 24.235 33.1216 23.3115C33.1216 19.0652 30.8868 15.3312 27.5335 13.221V15.1996C29.9469 17.0842 31.5002 20.0193 31.5002 23.3115C31.5002 28.9842 26.8849 33.5995 21.2122 33.5995C18.6767 33.5995 16.3549 32.6783 14.5596 31.1532L13.4105 30.0111C11.8619 28.2087 10.9243 25.8682 10.9243 23.3115C10.9243 20.0569 12.4447 17.15 14.811 15.2631V13.2727C14.0896 13.7356 13.4199 14.2737 12.8136 14.8753L12.8113 14.873L6.70618 20.3647C6.39834 20.2237 6.05525 20.1438 5.69337 20.1438C4.35156 20.1438 3.25885 21.2365 3.25885 22.5783C3.25885 23.6358 3.93563 24.5382 4.88029 24.8742C5.16698 27.9456 6.29964 30.836 8.20308 33.3081C10.3533 36.1045 13.3987 38.1654 16.7779 39.1124C16.9753 39.1688 17.1774 39.2205 17.3772 39.2675L17.7555 37.6907C17.5769 37.6484 17.3936 37.6014 17.215 37.5497C14.1719 36.6967 11.4272 34.8379 9.48848 32.3188C7.80594 30.1333 6.79078 27.5837 6.51114 24.8719C7.45345 24.5358 8.13023 23.6335 8.13023 22.5783C8.13023 22.1883 8.03858 21.8217 7.87409 21.495L9.86212 19.7067C9.50023 20.8441 9.30284 22.0567 9.30284 23.3115C9.30284 26.2842 10.3979 29.0077 12.2073 31.0968L12.205 31.0991L12.2308 31.125C12.6092 31.5597 13.0181 31.9663 13.4551 32.3423L19.0127 37.8646C18.8623 38.1818 18.7777 38.5343 18.7777 38.9079C18.7777 40.2497 19.8704 41.3424 21.2122 41.3424C22.3331 41.3424 23.2801 40.5811 23.5621 39.5471C26.4455 39.1288 29.1925 37.9445 31.4743 36.1139C34.3271 33.8251 36.3551 30.6151 37.187 27.0761L35.6078 26.7048C34.8582 29.8936 33.03 32.7864 30.4591 34.8496C28.3983 36.5016 26.0061 37.545 23.4423 37.928C23.064 37.0703 22.2086 36.4711 21.2122 36.4711C20.8339 36.4711 20.4743 36.558 20.1548 36.7131L18.2866 34.8567C19.2265 35.0964 20.2065 35.2233 21.2146 35.2233C25.4068 35.2233 29.1009 33.0449 31.2229 29.762ZM36.811 22.4984C37.2598 22.4984 37.624 22.8627 37.624 23.3115C37.624 23.7604 37.2598 24.1246 36.811 24.1246C36.3621 24.1246 35.9979 23.7604 35.9979 23.3115C35.9979 22.8627 36.3621 22.4984 36.811 22.4984ZM5.69337 23.3914C5.24453 23.3914 4.88029 23.0272 4.88029 22.5783C4.88029 22.1295 5.24453 21.7653 5.69337 21.7653C6.1422 21.7653 6.50644 22.1295 6.50644 22.5783C6.50644 23.0272 6.1422 23.3914 5.69337 23.3914ZM21.2146 38.0949C21.6634 38.0949 22.0276 38.4591 22.0276 38.9079C22.0276 39.3568 21.6634 39.721 21.2146 39.721C20.7657 39.721 20.4015 39.3568 20.4015 38.9079C20.4015 38.4591 20.7657 38.0949 21.2146 38.0949Z" fill="url(#paint1_linear_29_1405)"/>
<path d="M21.2521 11.6277C23.3974 11.6277 25.1365 9.8886 25.1365 7.7433C25.1365 5.598 23.3974 3.85889 21.2521 3.85889C19.1068 3.85889 17.3677 5.598 17.3677 7.7433C17.3677 9.8886 19.1068 11.6277 21.2521 11.6277Z" fill="#1C2A9A"/>
<path d="M21.2522 14.3579C20.2793 14.3579 19.3558 14.1464 18.5239 13.7681C17.8518 14.4448 17.4359 15.3754 17.4359 16.4023V27.9569C17.4359 30.0224 19.1091 31.6956 21.1746 31.6956C23.2402 31.6956 24.9134 30.0224 24.9134 27.9569V16.4047C24.9134 15.4013 24.5162 14.4895 23.8723 13.8198C23.0687 14.1652 22.1827 14.3579 21.2522 14.3579Z" fill="#1C2A9A"/>
<path d="M46.683 27.3556V4.72827H52.0831V27.3533H46.683V27.3556Z" fill="#1C2A9A"/>
<path d="M57.3563 27.3554V3.99719H57.871L71.9611 17.199V4.72802H76.9382V28.2131H76.4706L62.3335 15.0113V27.353H57.3563V27.3554Z" fill="#1C2A9A"/>
<path d="M82.1198 27.3556V4.72827H96.1793V9.33176H87.487V13.8413H95.2581V18.4142H87.487V27.3556H82.1198Z" fill="#1C2A9A"/>
<path d="M98.3177 16.0404C98.3177 14.3649 98.6068 12.7975 99.1849 11.3359C99.7629 9.87425 100.614 8.56534 101.737 7.41153C102.799 6.30942 104.03 5.46345 105.436 4.87597C106.841 4.28849 108.312 3.99475 109.851 3.99475C111.39 3.99475 112.866 4.29084 114.274 4.88302C115.684 5.4752 116.934 6.32822 118.027 7.44208C119.129 8.55594 119.965 9.8437 120.532 11.303C121.098 12.7646 121.382 14.3438 121.382 16.0381C121.382 17.4527 121.185 18.7851 120.79 20.0329C120.395 21.2807 119.808 22.4205 119.028 23.4497C117.925 24.9161 116.57 26.0558 114.962 26.8665C113.355 27.6772 111.651 28.0838 109.851 28.0838C108.321 28.0838 106.857 27.7877 105.459 27.1931C104.061 26.601 102.82 25.7479 101.737 24.6341C100.614 23.4803 99.7629 22.1761 99.1849 20.7262C98.6068 19.2763 98.3177 17.7159 98.3177 16.0404ZM103.873 16.0404C103.873 18.0073 104.449 19.6523 105.598 20.98C106.747 22.3053 108.164 22.9703 109.849 22.9703C111.543 22.9703 112.965 22.31 114.109 20.9894C115.254 19.6687 115.825 18.0191 115.825 16.0428C115.825 14.0548 115.251 12.4004 114.109 11.0727C112.965 9.74735 111.545 9.08232 109.849 9.08232C108.164 9.08232 106.747 9.745 105.598 11.0727C104.446 12.3981 103.873 14.0547 103.873 16.0404Z" fill="#1C2A9A"/>
<path d="M141.869 11.8908C140.891 10.8827 139.9 10.133 138.896 9.64426C137.893 9.15548 136.84 8.91109 135.735 8.91109C133.82 8.91109 132.255 9.57141 131.038 10.8921C129.821 12.2127 129.212 13.9094 129.212 15.9796C129.212 18.0499 129.816 19.7278 131.022 21.0108C132.227 22.2962 133.799 22.9377 135.733 22.9377C136.878 22.9377 138.02 22.6981 139.159 22.221C140.299 21.7416 141.434 21.0249 142.569 20.0685L142.226 26.0749C141.258 26.7305 140.2 27.2287 139.051 27.5718C137.902 27.9149 136.708 28.0864 135.47 28.0864C134.138 28.0864 132.862 27.8773 131.64 27.4613C130.418 27.0454 129.292 26.4321 128.26 25.619C126.803 24.4746 125.687 23.0787 124.914 21.4291C124.139 19.7795 123.751 17.9841 123.751 16.0384C123.751 14.3629 124.038 12.7931 124.609 11.3268C125.18 9.86045 126.014 8.56565 127.104 7.44239C128.206 6.31913 129.482 5.45906 130.928 4.85983C132.373 4.26295 133.898 3.96216 135.501 3.96216C136.769 3.96216 137.982 4.1384 139.136 4.49324C140.29 4.84808 141.394 5.38151 142.445 6.10058L141.869 11.8908Z" fill="#1C2A9A"/>
<path d="M151.2 4.72827V17.164C151.2 19.1615 151.567 20.656 152.3 21.65C153.033 22.644 154.145 23.1399 155.632 23.1399C157.068 23.1399 158.163 22.6769 158.917 21.7511C159.672 20.8252 160.048 19.4787 160.048 17.7092V4.72827H164.87V17.7116C164.87 20.978 164.033 23.5229 162.358 25.3488C160.682 27.1747 158.358 28.0865 155.383 28.0865C152.378 28.0865 150.039 27.1817 148.369 25.3723C146.698 23.5629 145.864 21.0179 145.864 17.7421V4.72827H151.2Z" fill="#1C2A9A"/>
<path d="M168.801 20.9544C170.195 21.8074 171.379 22.4067 172.352 22.7498C173.325 23.0928 174.274 23.2644 175.2 23.2644C176.135 23.2644 176.887 23.0599 177.454 22.6487C178.02 22.2375 178.304 21.7111 178.304 21.0649C178.304 20.139 177.296 19.098 175.278 17.9442C174.956 17.7562 174.704 17.6105 174.528 17.5071L172.998 16.6494C171.511 15.8057 170.408 14.854 169.689 13.7942C168.973 12.7321 168.613 11.5312 168.613 10.1894C168.613 8.36825 169.299 6.87606 170.674 5.7105C172.046 4.54494 173.821 3.96216 175.994 3.96216C176.796 3.96216 177.663 4.05615 178.6 4.24415C179.538 4.43214 180.577 4.72353 181.721 5.11832V10.4244C180.628 9.73826 179.594 9.20718 178.617 8.83354C177.639 8.4599 176.807 8.27191 176.121 8.27191C175.362 8.27191 174.763 8.4364 174.326 8.76304C173.889 9.08968 173.67 9.53616 173.67 10.0978C173.67 10.4926 173.799 10.8615 174.06 11.2046C174.321 11.5477 174.711 11.8602 175.231 12.1399L177.884 13.6062C180.1 14.8329 181.589 15.9679 182.353 17.0089C183.117 18.0499 183.5 19.2813 183.5 20.7077C183.5 22.9142 182.748 24.6955 181.244 26.0514C179.74 27.4096 177.745 28.0888 175.261 28.0888C174.417 28.0888 173.503 27.9995 172.514 27.8232C171.525 27.647 170.439 27.3697 169.252 26.9961L168.801 20.9544Z" fill="#1C2A9A"/>
<path d="M50.518 34.8568C50.2759 34.7182 49.9422 34.6477 49.5192 34.6477C49.054 34.6477 48.7015 34.737 48.4571 34.9179C48.215 35.0989 48.0928 35.3386 48.0928 35.637C48.0928 35.7333 48.1163 35.8391 48.161 35.9495C48.2056 36.06 48.2973 36.1704 48.4312 36.2785C48.5675 36.3866 48.7626 36.4806 49.0187 36.5652L50.6214 37.0446C51.2605 37.2326 51.7188 37.5122 52.0008 37.8812C52.2828 38.2524 52.4214 38.6848 52.4214 39.176C52.4214 39.6483 52.2992 40.0572 52.0572 40.405C51.8151 40.7528 51.472 41.0183 51.0279 41.2016C50.5838 41.3849 50.0527 41.4765 49.437 41.4765C48.9858 41.4765 48.5652 41.4248 48.1727 41.3214C47.7803 41.218 47.4349 41.0653 47.1317 40.8632C46.8309 40.6611 46.5865 40.4238 46.3986 40.1441C46.3633 40.0877 46.3516 40.0384 46.361 39.9937C46.3704 39.9491 46.4033 39.9044 46.4597 39.8645L47.1153 39.4063C47.1975 39.3569 47.2633 39.3381 47.308 39.3428C47.3526 39.3499 47.3926 39.3734 47.4278 39.4157C47.6017 39.6389 47.7733 39.8198 47.9425 39.9608C48.1116 40.1042 48.309 40.2099 48.5299 40.2781C48.7508 40.3486 49.0234 40.3815 49.3407 40.3815C49.8271 40.3815 50.2148 40.2992 50.5062 40.1371C50.7976 39.9749 50.9433 39.7188 50.9433 39.3734C50.9433 39.2347 50.9127 39.1078 50.854 38.9927C50.7953 38.8775 50.6989 38.7718 50.5626 38.6754C50.4263 38.5791 50.2313 38.4874 49.9751 38.4052L48.403 37.9258C48.0012 37.8013 47.6699 37.6321 47.409 37.4206C47.1482 37.2091 46.9531 36.9647 46.8215 36.6874C46.6899 36.4101 46.6241 36.1211 46.6241 35.8226C46.6241 35.3785 46.7416 34.9861 46.979 34.6406C47.214 34.2975 47.5477 34.0296 47.9777 33.8346C48.4077 33.6396 48.9106 33.5432 49.4863 33.5432C49.86 33.5432 50.2125 33.5855 50.5415 33.6725C50.8704 33.7594 51.1689 33.8816 51.4368 34.0414C51.7047 34.2012 51.9232 34.3915 52.0971 34.6148C52.1253 34.65 52.1465 34.6876 52.1606 34.7299C52.1747 34.7722 52.1535 34.8122 52.0971 34.8545L51.3592 35.4067C51.324 35.4349 51.2911 35.4419 51.2605 35.4325C51.23 35.4231 51.1853 35.3903 51.1313 35.3339C50.9644 35.1553 50.76 34.9955 50.518 34.8568Z" fill="#1C2A9A"/>
<path d="M55.7419 41.0066C55.2225 40.694 54.8207 40.2428 54.5411 39.653C54.2591 39.0632 54.1204 38.3582 54.1204 37.5404C54.1204 36.7086 54.2614 35.9942 54.5481 35.3973C54.8324 34.8004 55.2343 34.3422 55.756 34.0226C56.2753 33.703 56.891 33.5432 57.5983 33.5432C58.3056 33.5432 58.919 33.703 59.4359 34.0226C59.9529 34.3422 60.3524 34.7981 60.6367 35.3902C60.9211 35.9824 61.0644 36.6968 61.0644 37.5287C61.0644 38.3464 60.9234 39.0514 60.6438 39.6413C60.3618 40.2311 59.9623 40.6846 59.443 40.9995C58.9237 41.3144 58.308 41.4718 57.6007 41.4718C56.8792 41.4765 56.2612 41.3191 55.7419 41.0066ZM58.9942 39.7023C59.2949 39.2559 59.4477 38.5391 59.4477 37.5545C59.4477 36.5488 59.2949 35.8109 58.9895 35.3433C58.684 34.8756 58.2187 34.6406 57.596 34.6406C56.9638 34.6406 56.4938 34.8756 56.186 35.3433C55.8782 35.8109 55.7231 36.5488 55.7231 37.5545C55.7231 38.5321 55.8782 39.2465 56.186 39.6976C56.4938 40.1488 56.9685 40.3744 57.6054 40.3744C58.2281 40.3721 58.691 40.1488 58.9942 39.7023Z" fill="#1C2A9A"/>
<path d="M63.4097 33.6511H68.3727C68.462 33.6511 68.509 33.7028 68.509 33.8062L68.4996 34.6075C68.4996 34.7321 68.4408 34.7955 68.3234 34.7955H64.9724C64.8549 34.7955 64.7961 34.8449 64.7961 34.9412V36.8776C64.7961 36.981 64.8455 37.0327 64.9418 37.0327H67.3763C67.4727 37.0327 67.522 37.082 67.522 37.1783V38.0102C67.522 38.0995 67.4727 38.1465 67.3763 38.1465H64.9301C64.8408 38.1465 64.7938 38.1888 64.7938 38.2711V41.1732C64.7938 41.3048 64.7162 41.3706 64.5658 41.3706H63.452C63.3744 41.3706 63.3227 41.3542 63.2969 41.3236C63.2687 41.2931 63.2546 41.2461 63.2546 41.1826V33.825C63.2546 33.7099 63.3063 33.6511 63.4097 33.6511Z" fill="#1C2A9A"/>
<path d="M70.1116 33.818C70.1116 33.7686 70.1257 33.7287 70.1539 33.6981C70.1821 33.6676 70.2268 33.6511 70.2902 33.6511H76.1392C76.2026 33.6511 76.2473 33.6676 76.2755 33.6981C76.3037 33.7287 76.3178 33.7686 76.3178 33.818V34.6287C76.3178 34.725 76.2614 34.7744 76.1509 34.7744H74.1535C74.0759 34.7744 74.0383 34.8096 74.0383 34.8778V41.1944C74.0383 41.3119 73.9866 41.3706 73.8832 41.3706H72.6448C72.5485 41.3706 72.4991 41.3142 72.4991 41.2038V34.8989C72.4991 34.8167 72.4615 34.7744 72.384 34.7744H70.2926C70.1751 34.7744 70.1163 34.725 70.1163 34.6287V33.818H70.1116Z" fill="#1C2A9A"/>
<path d="M88.2577 33.7289C88.2929 33.7806 88.3 33.8441 88.2788 33.9216L86.1451 41.1735C86.1028 41.3051 86.0088 41.3709 85.8631 41.3709H84.9067C84.7469 41.3709 84.6506 41.3074 84.6153 41.1829L83.1795 36.1682C83.1654 36.1118 83.149 36.0836 83.1325 36.0789C83.1161 36.0765 83.0949 36.1094 83.0761 36.1776L81.6309 41.1711C81.5886 41.3027 81.4923 41.3685 81.3395 41.3685H80.362C80.2092 41.3685 80.1129 41.3051 80.0706 41.1805L77.958 33.9287C77.9369 33.8464 77.9439 33.7783 77.9792 33.7266C78.0144 33.6749 78.0755 33.649 78.1671 33.649H79.2505C79.3257 33.649 79.3821 33.6631 79.4173 33.6913C79.4525 33.7195 79.476 33.7571 79.4901 33.8065L80.9565 38.9998C80.9776 39.075 80.9988 39.115 81.0199 39.115C81.0411 39.115 81.0622 39.0844 81.0834 39.021L82.5497 33.8088C82.5638 33.7595 82.5873 33.7219 82.6226 33.6937C82.6578 33.6655 82.7166 33.6514 82.7988 33.6514H83.7341C83.8093 33.6514 83.8657 33.6655 83.9009 33.6937C83.9362 33.7219 83.9597 33.7595 83.9738 33.8088L85.4613 39.0539C85.4754 39.1103 85.4942 39.1385 85.5177 39.1432C85.5412 39.1479 85.56 39.1197 85.5741 39.0656L87.031 33.8112C87.0451 33.7618 87.071 33.7242 87.1086 33.696C87.1462 33.6678 87.2049 33.6537 87.2801 33.6537H88.0721C88.1613 33.6514 88.2248 33.6772 88.2577 33.7289Z" fill="#1C2A9A"/>
<path d="M88.8146 41.298C88.7911 41.2487 88.7911 41.1876 88.8193 41.11L91.4418 33.837C91.47 33.7689 91.4982 33.7195 91.5311 33.6913C91.5617 33.6631 91.6157 33.649 91.6933 33.649H92.9951C93.1408 33.649 93.2372 33.7195 93.2865 33.8582L95.8879 41.1218C95.909 41.1782 95.909 41.2322 95.8879 41.2886C95.8667 41.345 95.8291 41.3709 95.7727 41.3709H94.5132C94.4168 41.3709 94.3534 41.3262 94.3252 41.2346L93.7213 39.5497C93.7142 39.5144 93.7024 39.4886 93.686 39.4721C93.6696 39.4557 93.6367 39.4463 93.5873 39.4463H90.8825C90.8191 39.4463 90.7792 39.4768 90.758 39.5403L90.1329 41.2463C90.1259 41.2886 90.1071 41.3192 90.0765 41.3403C90.046 41.3615 90.0013 41.3709 89.9473 41.3709H88.9368C88.8804 41.3709 88.8405 41.3474 88.8146 41.298ZM93.2231 38.2713C93.3124 38.2713 93.3406 38.2149 93.3053 38.1045L92.3066 35.3269C92.2854 35.2775 92.262 35.254 92.2338 35.254C92.2056 35.254 92.1821 35.2822 92.1609 35.3363L91.1528 38.1045C91.1105 38.2149 91.1387 38.2713 91.235 38.2713H93.2231Z" fill="#1C2A9A"/>
<path d="M103.95 41.2931C103.922 41.3448 103.878 41.3707 103.814 41.3707H102.545C102.442 41.3707 102.371 41.3143 102.336 41.2038L101.14 38.1654C101.105 38.0761 101.011 38.0291 100.858 38.0291H99.6102C99.5608 38.0291 99.5279 38.0408 99.5115 38.0643C99.495 38.0878 99.4856 38.1137 99.4856 38.1419V41.1498C99.4856 41.2955 99.4057 41.3683 99.2459 41.3683H98.1438C98.0663 41.3683 98.0146 41.3519 97.9887 41.3213C97.9605 41.2908 97.9464 41.2438 97.9464 41.1803V33.8227C97.9464 33.7052 97.9981 33.6465 98.1015 33.6465H101.234C102.122 33.6465 102.813 33.8251 103.309 34.1823C103.805 34.5395 104.054 35.0541 104.054 35.7285C104.054 36.0951 103.983 36.417 103.845 36.692C103.706 36.9669 103.525 37.1925 103.304 37.3688C103.081 37.545 102.846 37.6789 102.597 37.7706C102.533 37.7847 102.519 37.8293 102.555 37.9069L103.948 41.1216C103.979 41.185 103.979 41.2414 103.95 41.2931ZM102.092 36.6896C102.338 36.5016 102.461 36.222 102.461 35.846C102.461 35.4653 102.343 35.1786 102.106 34.9883C101.871 34.7979 101.546 34.7016 101.138 34.7016H99.6713C99.5467 34.7016 99.4833 34.7533 99.4833 34.8567V36.8118C99.4833 36.9152 99.5279 36.9669 99.6196 36.9669H101.013C101.488 36.9693 101.847 36.8753 102.092 36.6896Z" fill="#1C2A9A"/>
<path d="M106.364 33.6511H111.411C111.501 33.6511 111.548 33.7028 111.548 33.8062V34.6075C111.548 34.7321 111.484 34.7955 111.36 34.7955H107.927C107.809 34.7955 107.75 34.8449 107.75 34.9412V36.7624C107.75 36.8658 107.8 36.9175 107.896 36.9175H110.269C110.373 36.9175 110.425 36.9692 110.425 37.0726V37.9162C110.425 37.9585 110.415 37.9891 110.394 38.0102C110.373 38.0314 110.335 38.0408 110.279 38.0408H107.887C107.797 38.0408 107.75 38.0831 107.75 38.1653V40.1016C107.75 40.1839 107.788 40.2262 107.865 40.2262H111.508C111.618 40.2262 111.675 40.2755 111.675 40.3719V41.2155C111.675 41.2578 111.661 41.2931 111.632 41.3236C111.604 41.3542 111.56 41.3706 111.496 41.3706H106.408C106.277 41.3706 106.211 41.3072 106.211 41.1826V33.825C106.209 33.7099 106.26 33.6511 106.364 33.6511Z" fill="#1C2A9A"/>
<path d="M120.515 34.8568C120.273 34.7182 119.939 34.6477 119.516 34.6477C119.051 34.6477 118.699 34.737 118.454 34.9179C118.212 35.0989 118.09 35.3386 118.09 35.637C118.09 35.7333 118.113 35.8391 118.158 35.9495C118.203 36.06 118.294 36.1704 118.428 36.2785C118.565 36.3866 118.76 36.4806 119.016 36.5652L120.618 37.0446C121.258 37.2326 121.716 37.5122 121.998 37.8812C122.28 38.2524 122.418 38.6848 122.418 39.176C122.418 39.6483 122.296 40.0572 122.054 40.405C121.812 40.7528 121.467 41.0183 121.025 41.2016C120.581 41.3849 120.05 41.4765 119.432 41.4765C118.981 41.4765 118.56 41.4248 118.167 41.3214C117.775 41.218 117.43 41.0653 117.126 40.8632C116.826 40.6611 116.579 40.4238 116.393 40.1441C116.358 40.0877 116.346 40.0384 116.356 39.9937C116.365 39.9491 116.398 39.9044 116.454 39.8645L117.11 39.4063C117.192 39.3569 117.258 39.3381 117.303 39.3428C117.347 39.3499 117.387 39.3734 117.423 39.4157C117.596 39.6389 117.768 39.8198 117.937 39.9608C118.106 40.1042 118.304 40.2099 118.525 40.2781C118.746 40.3486 119.018 40.3815 119.335 40.3815C119.822 40.3815 120.21 40.2992 120.501 40.1371C120.792 39.9749 120.938 39.7188 120.938 39.3734C120.938 39.2347 120.907 39.1078 120.849 38.9927C120.79 38.8775 120.694 38.7718 120.557 38.6754C120.421 38.5791 120.226 38.4874 119.97 38.4052L118.398 37.9258C117.996 37.8013 117.665 37.6321 117.404 37.4206C117.143 37.2091 116.948 36.9647 116.816 36.6874C116.685 36.4101 116.619 36.1211 116.619 35.8226C116.619 35.3785 116.736 34.9861 116.971 34.6406C117.206 34.2975 117.54 34.0296 117.97 33.8346C118.4 33.6396 118.903 33.5432 119.479 33.5432C119.852 33.5432 120.205 33.5855 120.534 33.6725C120.863 33.7594 121.161 33.8816 121.429 34.0414C121.697 34.2012 121.916 34.3915 122.089 34.6148C122.118 34.65 122.139 34.6876 122.153 34.7299C122.167 34.7722 122.146 34.8122 122.089 34.8545L121.352 35.4067C121.316 35.4349 121.283 35.4419 121.253 35.4325C121.222 35.4231 121.178 35.3903 121.124 35.3339C120.964 35.1553 120.757 34.9955 120.515 34.8568Z" fill="#1C2A9A"/>
<path d="M125.739 41.0066C125.22 40.694 124.818 40.2428 124.538 39.653C124.256 39.0632 124.117 38.3582 124.117 37.5404C124.117 36.7086 124.258 35.9942 124.545 35.3973C124.829 34.8004 125.231 34.3422 125.753 34.0226C126.272 33.703 126.888 33.5432 127.595 33.5432C128.303 33.5432 128.916 33.703 129.433 34.0226C129.95 34.3422 130.349 34.7981 130.634 35.3902C130.918 35.9824 131.061 36.6968 131.061 37.5287C131.061 38.3464 130.92 39.0514 130.641 39.6413C130.359 40.2311 129.959 40.6846 129.44 40.9995C128.921 41.3144 128.305 41.4718 127.598 41.4718C126.876 41.4765 126.258 41.3191 125.739 41.0066ZM128.991 39.7023C129.292 39.2559 129.445 38.5391 129.445 37.5545C129.445 36.5488 129.292 35.8109 128.986 35.3433C128.681 34.8756 128.216 34.6406 127.593 34.6406C126.961 34.6406 126.491 34.8756 126.183 35.3433C125.875 35.8109 125.72 36.5488 125.72 37.5545C125.72 38.5321 125.875 39.2465 126.183 39.6976C126.491 40.1488 126.966 40.3744 127.602 40.3744C128.225 40.3721 128.688 40.1488 128.991 39.7023Z" fill="#1C2A9A"/>
<path d="M133.407 33.6511H134.645C134.741 33.6511 134.791 33.7075 134.791 33.818V40.104C134.791 40.1862 134.828 40.2285 134.906 40.2285H138.318C138.428 40.2285 138.485 40.2779 138.485 40.3742V41.2179C138.485 41.2602 138.471 41.2954 138.443 41.326C138.414 41.3565 138.37 41.373 138.306 41.373H133.449C133.371 41.373 133.32 41.3565 133.294 41.326C133.266 41.2954 133.252 41.2484 133.252 41.185V33.8274C133.252 33.7099 133.303 33.6511 133.407 33.6511Z" fill="#1C2A9A"/>
<path d="M145.676 40.2779C145.441 40.7009 145.097 41.0064 144.651 41.1944C144.205 41.3824 143.664 41.4763 143.032 41.4763C142.31 41.4763 141.73 41.3612 141.295 41.1333C140.858 40.9053 140.539 40.5622 140.339 40.1087C140.137 39.6552 140.038 39.0935 140.038 38.4285V33.8391C140.038 33.7146 140.087 33.6511 140.184 33.6511H141.432C141.528 33.6511 141.577 33.7075 141.577 33.818V38.6564C141.577 39.2463 141.711 39.6763 141.979 39.9466C142.247 40.2168 142.637 40.3531 143.149 40.3531C143.476 40.3531 143.76 40.2967 144.002 40.1815C144.244 40.0664 144.432 39.8808 144.564 39.6246C144.696 39.3685 144.761 39.0348 144.761 38.6259V33.8297C144.761 33.7122 144.811 33.6535 144.907 33.6535H145.896C145.986 33.6535 146.033 33.7099 146.033 33.8203V38.6165C146.03 39.3003 145.911 39.8549 145.676 40.2779Z" fill="#1C2A9A"/>
<path d="M147.986 33.818C147.986 33.7686 148 33.7287 148.028 33.6981C148.056 33.6676 148.101 33.6511 148.164 33.6511H154.013C154.077 33.6511 154.121 33.6676 154.149 33.6981C154.178 33.7287 154.192 33.7686 154.192 33.818V34.6287C154.192 34.725 154.135 34.7744 154.025 34.7744H152.027C151.95 34.7744 151.912 34.8096 151.912 34.8778V41.1944C151.912 41.3119 151.861 41.3706 151.757 41.3706H150.519C150.422 41.3706 150.373 41.3142 150.373 41.2038V34.8989C150.373 34.8167 150.335 34.7744 150.258 34.7744H148.167C148.049 34.7744 147.99 34.725 147.99 34.6287V33.818H147.986Z" fill="#1C2A9A"/>
<path d="M157.632 33.6514C157.728 33.6514 157.778 33.7078 157.778 33.8182V41.1429C157.778 41.2252 157.759 41.2863 157.721 41.3192C157.684 41.3544 157.618 41.3709 157.529 41.3709H156.448C156.365 41.3709 156.309 41.3544 156.281 41.3239C156.253 41.2933 156.238 41.2463 156.238 41.1829V33.8253C156.238 33.7078 156.29 33.649 156.394 33.649L157.632 33.6514Z" fill="#1C2A9A"/>
<path d="M161.606 41.0066C161.086 40.694 160.685 40.2428 160.405 39.653C160.123 39.0632 159.984 38.3582 159.984 37.5404C159.984 36.7086 160.125 35.9942 160.412 35.3973C160.696 34.8004 161.098 34.3422 161.62 34.0226C162.139 33.703 162.755 33.5432 163.462 33.5432C164.169 33.5432 164.783 33.703 165.3 34.0226C165.817 34.3422 166.216 34.7981 166.501 35.3902C166.785 35.9824 166.928 36.6968 166.928 37.5287C166.928 38.3464 166.787 39.0514 166.508 39.6413C166.226 40.2311 165.826 40.6846 165.307 40.9995C164.788 41.3144 164.172 41.4718 163.465 41.4718C162.743 41.4765 162.127 41.3191 161.606 41.0066ZM164.858 39.7023C165.159 39.2559 165.312 38.5391 165.312 37.5545C165.312 36.5488 165.159 35.8109 164.853 35.3433C164.548 34.8756 164.083 34.6406 163.46 34.6406C162.828 34.6406 162.358 34.8756 162.05 35.3433C161.742 35.8109 161.587 36.5488 161.587 37.5545C161.587 38.5321 161.742 39.2465 162.05 39.6976C162.358 40.1488 162.832 40.3744 163.469 40.3744C164.094 40.3721 164.557 40.1488 164.858 39.7023Z" fill="#1C2A9A"/>
<path d="M175.238 33.6514C175.32 33.6514 175.362 33.7007 175.362 33.7971V41.2158C175.362 41.2651 175.346 41.3027 175.315 41.3309C175.285 41.3591 175.24 41.3732 175.186 41.3732H174.323C174.274 41.3732 174.232 41.3685 174.194 41.3568C174.157 41.345 174.117 41.3145 174.074 41.2581L170.517 36.2011C170.488 36.1588 170.463 36.1423 170.439 36.1494C170.416 36.1564 170.404 36.1776 170.404 36.2128V41.204C170.411 41.3145 170.352 41.3709 170.228 41.3709H169.311C169.187 41.3709 169.123 41.3145 169.123 41.204V33.8253C169.123 33.7078 169.179 33.649 169.29 33.649H170.331C170.399 33.649 170.453 33.6584 170.486 33.6749C170.521 33.6913 170.559 33.7289 170.601 33.7853L173.938 38.6144C173.987 38.6708 174.027 38.692 174.058 38.6826C174.088 38.6732 174.105 38.6403 174.105 38.5839V33.8182C174.105 33.7078 174.157 33.6514 174.26 33.6514H175.238Z" fill="#1C2A9A"/>
<path d="M181.585 34.8568C181.343 34.7182 181.009 34.6477 180.586 34.6477C180.121 34.6477 179.768 34.737 179.524 34.9179C179.282 35.0989 179.16 35.3386 179.16 35.637C179.16 35.7333 179.183 35.8391 179.228 35.9495C179.272 36.06 179.364 36.1704 179.498 36.2785C179.634 36.3866 179.829 36.4806 180.085 36.5652L181.688 37.0446C182.327 37.2326 182.786 37.5122 183.067 37.8812C183.349 38.2524 183.488 38.6848 183.488 39.176C183.488 39.6483 183.366 40.0572 183.124 40.405C182.882 40.7528 182.536 41.0183 182.095 41.2016C181.651 41.3849 181.119 41.4765 180.501 41.4765C180.05 41.4765 179.63 41.4248 179.237 41.3214C178.845 41.218 178.499 41.0653 178.196 40.8632C177.895 40.6611 177.649 40.4238 177.463 40.1441C177.428 40.0877 177.416 40.0384 177.425 39.9937C177.435 39.9491 177.468 39.9044 177.524 39.8645L178.18 39.4063C178.262 39.3569 178.328 39.3381 178.372 39.3428C178.417 39.3499 178.457 39.3734 178.492 39.4157C178.666 39.6389 178.838 39.8198 179.007 39.9608C179.176 40.1042 179.373 40.2099 179.594 40.2781C179.815 40.3486 180.088 40.3815 180.405 40.3815C180.891 40.3815 181.279 40.2992 181.571 40.1371C181.862 39.9749 182.008 39.7188 182.008 39.3734C182.008 39.2347 181.977 39.1078 181.918 38.9927C181.86 38.8775 181.763 38.7718 181.627 38.6754C181.491 38.5791 181.296 38.4874 181.04 38.4052L179.467 37.9258C179.066 37.8013 178.734 37.6321 178.473 37.4206C178.213 37.2091 178.018 36.9647 177.886 36.6874C177.754 36.4101 177.689 36.1211 177.689 35.8226C177.689 35.3785 177.806 34.9861 178.041 34.6406C178.276 34.2975 178.61 34.0296 179.04 33.8346C179.47 33.6396 179.973 33.5432 180.548 33.5432C180.922 33.5432 181.275 33.5855 181.603 33.6725C181.932 33.7594 182.231 33.8816 182.499 34.0414C182.767 34.2012 182.985 34.3915 183.159 34.6148C183.187 34.65 183.208 34.6876 183.223 34.7299C183.237 34.7722 183.216 34.8122 183.159 34.8545L182.421 35.4067C182.386 35.4349 182.353 35.4419 182.323 35.4325C182.292 35.4231 182.247 35.3903 182.193 35.3339C182.034 35.1553 181.827 34.9955 181.585 34.8568Z" fill="#1C2A9A"/>
<defs>
<linearGradient id="paint0_linear_29_1405" x1="5.34094" y1="13.7076" x2="15.914" y2="13.7076" gradientUnits="userSpaceOnUse">
<stop stop-color="#53A5EA"/>
<stop offset="1" stop-color="#05DDC4"/>
</linearGradient>
<linearGradient id="paint1_linear_29_1405" x1="3.25885" y1="24.6118" x2="39.2455" y2="24.6118" gradientUnits="userSpaceOnUse">
<stop stop-color="#53A5EA"/>
<stop offset="1" stop-color="#05DDC4"/>
</linearGradient>
</defs>
</svg>
